<svg id="visual" viewBox="0 0 800 600" width="800" height="600" xmlns="http://www.w3.org/2000/svg" xmlns:xlink="http://www.w3.org/1999/xlink" version="1.1"><rect x="0" y="0" width="800" height="600" fill="#ffffff"></rect><defs><linearGradient id="grad1_0" x1="25%" y1="100%" x2="100%" y2="0%"><stop offset="23.333333333333336%" stop-color="#ffffff" stop-opacity="1"></stop><stop offset="76.66666666666666%" stop-color="#ffffff" stop-opacity="1"></stop></linearGradient></defs><defs><linearGradient id="grad2_0" x1="0%" y1="100%" x2="75%" y2="0%"><stop offset="23.333333333333336%" stop-color="#ffffff" stop-opacity="1"></stop><stop offset="76.66666666666666%" stop-color="#ffffff" stop-opacity="1"></stop></linearGradient></defs><g transform="translate(800, 600)"><path d="M-225 0C-210 -19.4 -195 -38.8 -190.2 -61.8C-185.4 -84.8 -190.7 -111.5 -182 -132.3C-173.4 -153 -150.7 -168 -128.7 -177.2C-106.7 -186.4 -85.3 -189.9 -64 -196.9C-42.6 -203.9 -21.3 -214.4 0 -225L0 0Z" fill="#49006E"></path></g><g transform="translate(0, 0)"><path d="M225 0C210.1 19.6 195.3 39.3 190.2 61.8C185.1 84.3 189.9 109.8 182 132.3C174.2 154.7 153.7 174.2 130.5 179.6C107.3 185 81.2 176.4 59 181.7C36.8 186.9 18.4 205.9 0 225L0 0Z" fill="#49006E"></path></g></svg>