<svg id="visual" viewBox="0 0 1080 300" width="1080" height="300" xmlns="http://www.w3.org/2000/svg" xmlns:xlink="http://www.w3.org/1999/xlink" version="1.1"><path d="M0 146L25.7 144.3C51.3 142.7 102.7 139.3 154.2 132.7C205.7 126 257.3 116 308.8 112.2C360.3 108.3 411.7 110.7 463 118.5C514.3 126.3 565.7 139.7 617 146.7C668.3 153.7 719.7 154.3 771.2 147.2C822.7 140 874.3 125 925.8 116.5C977.3 108 1028.7 106 1054.3 105L1080 104L1080 301L1054.3 301C1028.7 301 977.3 301 925.8 301C874.3 301 822.7 301 771.2 301C719.7 301 668.3 301 617 301C565.7 301 514.3 301 463 301C411.7 301 360.3 301 308.8 301C257.3 301 205.7 301 154.2 301C102.7 301 51.3 301 25.7 301L0 301Z" fill="#49006e"></path><path d="M0 156L25.7 160C51.3 164 102.7 172 154.2 173.7C205.7 175.3 257.3 170.7 308.8 167.3C360.3 164 411.7 162 463 166.2C514.3 170.3 565.7 180.7 617 185.8C668.3 191 719.7 191 771.2 182.8C822.7 174.7 874.3 158.3 925.8 159.8C977.3 161.3 1028.7 180.7 1054.3 190.3L1080 200L1080 301L1054.3 301C1028.7 301 977.3 301 925.8 301C874.3 301 822.7 301 771.2 301C719.7 301 668.3 301 617 301C565.7 301 514.3 301 463 301C411.7 301 360.3 301 308.8 301C257.3 301 205.7 301 154.2 301C102.7 301 51.3 301 25.7 301L0 301Z" fill="#3d0062"></path><path d="M0 226L25.7 217.7C51.3 209.3 102.7 192.7 154.2 190.5C205.7 188.3 257.3 200.7 308.8 202.7C360.3 204.7 411.7 196.3 463 196.5C514.3 196.7 565.7 205.3 617 208C668.3 210.7 719.7 207.3 771.2 207.7C822.7 208 874.3 212 925.8 208.3C977.3 204.7 1028.7 193.3 1054.3 187.7L1080 182L1080 301L1054.3 301C1028.7 301 977.3 301 925.8 301C874.3 301 822.7 301 771.2 301C719.7 301 668.3 301 617 301C565.7 301 514.3 301 463 301C411.7 301 360.3 301 308.8 301C257.3 301 205.7 301 154.2 301C102.7 301 51.3 301 25.7 301L0 301Z" fill="#310057"></path><path d="M0 204L25.7 206.7C51.3 209.3 102.7 214.7 154.2 222.3C205.7 230 257.3 240 308.8 238.2C360.3 236.3 411.7 222.7 463 215.7C514.3 208.7 565.7 208.3 617 214.2C668.3 220 719.7 232 771.2 233.7C822.7 235.3 874.3 226.7 925.8 220.8C977.3 215 1028.7 212 1054.3 210.5L1080 209L1080 301L1054.3 301C1028.7 301 977.3 301 925.8 301C874.3 301 822.7 301 771.2 301C719.7 301 668.3 301 617 301C565.7 301 514.3 301 463 301C411.7 301 360.3 301 308.8 301C257.3 301 205.7 301 154.2 301C102.7 301 51.3 301 25.7 301L0 301Z" fill="#220049"></path><path d="M0 246L25.7 247.2C51.3 248.3 102.7 250.7 154.2 254.5C205.7 258.3 257.3 263.7 308.8 267.3C360.3 271 411.7 273 463 268.7C514.3 264.3 565.7 253.7 617 254.2C668.3 254.7 719.7 266.3 771.2 271.3C822.7 276.3 874.3 274.7 925.8 269.8C977.3 265 1028.7 257 1054.3 253L1080 249L1080 301L1054.3 301C1028.7 301 977.3 301 925.8 301C874.3 301 822.7 301 771.2 301C719.7 301 668.3 301 617 301C565.7 301 514.3 301 463 301C411.7 301 360.3 301 308.8 301C257.3 301 205.7 301 154.2 301C102.7 301 51.3 301 25.7 301L0 301Z" fill="#000000"></path></svg>