<svg width="107" height="56" viewBox="0 0 107 56" fill="none" xmlns="http://www.w3.org/2000/svg">
<g clip-path="url(#clip0_3182_42223)">
<path d="M98.1113 56H8.88869C3.97928 56 0 52.0417 0 47.1583V8.84174C0 3.95826 3.97928 0 8.88869 0H98.1148C103.021 0 107 3.95826 107 8.84174V47.1617C107 52.0417 103.021 56 98.1113 56Z" fill="url(#paint0_linear_3182_42223)"/>
<path d="M51.3146 8.37549H44.0588V48.8103H51.3146V8.37549Z" fill="white"/>
<path d="M64.777 22.0278H57.5212V48.8104H64.777V22.0278Z" fill="white"/>
<path d="M97.2966 48.8103L86.3937 34.6364L96.4224 22.0277H87.8554L78.2394 34.2607V8.37549H70.9836V48.8103H78.2394V35.0607L87.8554 48.8103H97.2966Z" fill="white"/>
<path d="M25.5681 21.725C23.2113 21.725 20.9944 22.3163 19.0572 23.3529V8.37549H11.8015V35.4189C11.8015 42.9842 17.9662 49.1163 25.5716 49.1163C33.177 49.1163 39.3417 42.9842 39.3417 35.4189C39.3417 27.8537 33.1735 21.725 25.5681 21.725ZM25.5681 41.8989C21.9699 41.8989 19.0572 38.9981 19.0572 35.4224C19.0572 31.8468 21.9734 28.9459 25.5681 28.9459C29.1627 28.9459 32.079 31.8468 32.079 35.4224C32.079 38.9981 29.1662 41.8989 25.5681 41.8989Z" fill="white"/>
<path d="M32.6525 19.2451C36.2252 19.2451 39.1214 16.3641 39.1214 12.8103C39.1214 9.25644 36.2252 6.37549 32.6525 6.37549C29.0798 6.37549 26.1835 9.25644 26.1835 12.8103C26.1835 16.3641 29.0798 19.2451 32.6525 19.2451Z" fill="url(#paint1_radial_3182_42223)"/>
</g>
<defs>
<linearGradient id="paint0_linear_3182_42223" x1="53.5" y1="56" x2="53.5" y2="0" gradientUnits="userSpaceOnUse">
<stop stop-color="#262626"/>
<stop offset="1"/>
</linearGradient>
<radialGradient id="paint1_radial_3182_42223" cx="0" cy="0" r="1" gradientUnits="userSpaceOnUse" gradientTransform="translate(27.3911 6.02881) scale(21.2087 21.0966)">
<stop stop-color="#FF0000"/>
<stop offset="0.495" stop-color="#E83E49"/>
<stop offset="1" stop-color="#FF00FF"/>
</radialGradient>
<clipPath id="clip0_3182_42223">
<rect width="107" height="56" fill="white"/>
</clipPath>
</defs>
</svg>
