<svg width="116" height="26" viewBox="0 0 116 26" fill="none" xmlns="http://www.w3.org/2000/svg">
<path d="M33.7624 5.04735C34.564 5.04735 35.2429 5.07103 35.7992 5.11838C36.3718 5.14995 36.8953 5.2052 37.3697 5.28412C37.8441 5.36304 38.3349 5.47354 38.8421 5.6156L38.5476 8.26741C38.0077 8.23584 37.5088 8.21217 37.0507 8.19638C36.609 8.1806 36.1264 8.1727 35.6029 8.1727C35.0957 8.15692 34.4822 8.14903 33.7624 8.14903C32.928 8.14903 32.2737 8.30687 31.7992 8.62256C31.3412 8.93826 31.014 9.49072 30.8176 10.2799C30.6213 11.0534 30.5232 12.1267 30.5232 13.5C30.5232 14.8733 30.6213 15.9545 30.8176 16.7437C31.014 17.5172 31.3412 18.0617 31.7992 18.3774C32.2737 18.6931 32.928 18.851 33.7624 18.851C34.8912 18.851 35.8401 18.8352 36.609 18.8036C37.3779 18.7721 38.1386 18.7168 38.8911 18.6379L39.2102 21.2897C38.4249 21.5265 37.6233 21.6922 36.8053 21.7869C35.9873 21.8974 34.973 21.9526 33.7624 21.9526C32.0119 21.9526 30.605 21.6843 29.5416 21.1476C28.4945 20.5952 27.7338 19.7033 27.2594 18.4721C26.8013 17.2409 26.5723 15.5836 26.5723 13.5C26.5723 11.4164 26.8013 9.75905 27.2594 8.52786C27.7338 7.29666 28.4945 6.41272 29.5416 5.87605C30.605 5.32358 32.0119 5.04735 33.7624 5.04735ZM48.0907 5.09471C49.5794 5.09471 50.7819 5.24466 51.698 5.54457C52.6305 5.82869 53.3094 6.3259 53.7348 7.03621C54.1765 7.73073 54.3973 8.70148 54.3973 9.94847C54.3973 10.7061 54.291 11.377 54.0783 11.961C53.882 12.5292 53.5466 12.987 53.0722 13.3343C52.5978 13.6815 51.9516 13.9025 51.1336 13.9972V14.1156C51.4281 14.163 51.7307 14.2734 52.0416 14.4471C52.3687 14.6207 52.6714 14.8812 52.9495 15.2284C53.2276 15.5599 53.4321 16.0098 53.563 16.578L55.0354 21.6685H51.0845L49.7839 16.6964C49.6367 16.1597 49.4158 15.7888 49.1214 15.5836C48.8432 15.3784 48.4506 15.2758 47.9435 15.2758C46.831 15.2758 45.8903 15.2758 45.1214 15.2758C44.3689 15.26 43.7308 15.2442 43.2073 15.2284C42.7002 15.2126 42.2421 15.1968 41.8331 15.1811L41.9067 12.5529H48.0171C48.6715 12.5529 49.1868 12.4898 49.5631 12.3635C49.9557 12.2214 50.2256 11.9768 50.3729 11.6295C50.5365 11.2823 50.6183 10.8008 50.6183 10.1852C50.6183 9.55385 50.5365 9.07242 50.3729 8.74095C50.2256 8.39369 49.9557 8.15692 49.5631 8.03064C49.1868 7.88858 48.6715 7.81755 48.0171 7.81755C46.4793 7.81755 45.1787 7.82544 44.1153 7.84123C43.0519 7.85701 42.3239 7.88069 41.9313 7.91226L41.5632 5.33147C42.2503 5.25255 42.8965 5.19731 43.5018 5.16574C44.1071 5.13417 44.7697 5.11838 45.4895 5.11838C46.2093 5.1026 47.0764 5.09471 48.0907 5.09471ZM45.2687 5.33147V21.6685H41.5632V5.33147H45.2687ZM70.3446 5.33147L64.6269 16.4833H61.0933L55.351 5.33147H59.2528L62.0994 11.3454C62.2466 11.6611 62.3693 12.0005 62.4675 12.3635C62.5656 12.7266 62.6556 13.0738 62.7374 13.4053H62.9828C63.081 13.0738 63.1791 12.7266 63.2773 12.3635C63.3754 12.0005 63.4899 11.6611 63.6208 11.3454L66.4429 5.33147H70.3446ZM64.7251 14.2813V21.6685H60.9706V14.2813H64.7251ZM78.5728 5.09471C80.1597 5.09471 81.4031 5.25255 82.3028 5.56825C83.2026 5.88394 83.8407 6.4285 84.2169 7.20195C84.6096 7.97539 84.8059 9.05664 84.8059 10.4457C84.8059 11.8347 84.6177 12.916 84.2415 13.6894C83.8816 14.4629 83.2844 15.0074 82.4501 15.3231C81.6157 15.623 80.4869 15.773 79.0636 15.773C78.3111 15.773 77.5749 15.7414 76.8551 15.6783C76.1353 15.6151 75.4645 15.5362 74.8428 15.4415C74.2212 15.3468 73.6895 15.2521 73.2478 15.1574C72.8061 15.0469 72.5034 14.9443 72.3398 14.8496L72.4134 13.0501C73.3786 13.0501 74.3766 13.0501 75.4072 13.0501C76.4543 13.0501 77.4849 13.0501 78.4992 13.0501C79.1536 13.0344 79.6608 12.9554 80.0207 12.8134C80.3969 12.6713 80.6587 12.4109 80.8059 12.032C80.9695 11.6532 81.0513 11.1244 81.0513 10.4457C81.0513 9.75116 80.9695 9.21449 80.8059 8.83566C80.6587 8.45683 80.3969 8.19638 80.0207 8.05432C79.6608 7.89647 79.1536 7.81755 78.4992 7.81755C76.9941 7.81755 75.7017 7.82544 74.622 7.84123C73.5422 7.85701 72.8142 7.88858 72.438 7.93594L72.0699 5.33147C72.757 5.25255 73.4032 5.19731 74.0085 5.16574C74.6138 5.13417 75.2682 5.11838 75.9716 5.11838C76.6915 5.1026 77.5585 5.09471 78.5728 5.09471ZM75.8244 5.33147V21.6685H72.0699V5.33147H75.8244ZM94.7974 5.33147V21.6685H91.0429V5.33147H94.7974ZM99.9017 5.33147V8.1727H85.9632V5.33147H99.9017ZM108.534 5C109.876 5 111.013 5.14206 111.945 5.42618C112.878 5.69452 113.622 6.15228 114.178 6.79944C114.751 7.43083 115.168 8.29898 115.43 9.4039C115.691 10.493 115.822 11.8584 115.822 13.5C115.822 15.1416 115.691 16.5149 115.43 17.6198C115.168 18.7089 114.751 19.5771 114.178 20.2242C113.622 20.8556 112.878 21.3134 111.945 21.5975C111.013 21.8658 109.876 22 108.534 22C107.193 22 106.056 21.8658 105.123 21.5975C104.191 21.3134 103.438 20.8556 102.865 20.2242C102.293 19.5771 101.876 18.7089 101.614 17.6198C101.352 16.5149 101.221 15.1416 101.221 13.5C101.221 11.8584 101.352 10.493 101.614 9.4039C101.876 8.29898 102.293 7.43083 102.865 6.79944C103.438 6.15228 104.191 5.69452 105.123 5.42618C106.056 5.14206 107.193 5 108.534 5ZM108.534 7.8649C107.667 7.8649 106.988 8.03064 106.497 8.36212C106.023 8.69359 105.679 9.26973 105.467 10.0905C105.27 10.8955 105.172 12.032 105.172 13.5C105.172 14.9522 105.27 16.0887 105.467 16.9095C105.679 17.7303 106.023 18.3064 106.497 18.6379C106.988 18.9694 107.667 19.1351 108.534 19.1351C109.385 19.1351 110.047 18.9694 110.522 18.6379C111.013 18.3064 111.356 17.7303 111.552 16.9095C111.765 16.0887 111.871 14.9522 111.871 13.5C111.871 12.032 111.765 10.8955 111.552 10.0905C111.356 9.26973 111.013 8.69359 110.522 8.36212C110.047 8.03064 109.385 7.8649 108.534 7.8649Z" fill="white"/>
<path d="M18.1934 15.2842C17.9433 14.7049 17.5536 14.2077 17.0301 13.7978C16.5008 13.388 15.8203 13.0984 14.9886 12.929C15.9657 12.5519 16.687 11.9945 17.1581 11.2623C17.6292 10.5301 17.8618 9.69945 17.8618 8.77049C17.8618 6.96721 17.1232 5.61202 15.6458 4.70492C14.7152 4.13115 13.552 3.73771 12.1561 3.52459H12.3073V0H9.99821V3.34426C9.82372 3.3388 9.65505 3.3388 9.47475 3.3388H8.21261V0H5.90936V3.3388H0V6.12022L2.16948 6.55191V19.8033L0 20.235V23.0055H5.90936V26H8.21843V23.0055H10.004V26H12.3073V22.9235C14.0638 22.7432 15.4713 22.2842 16.5125 21.5355C17.8851 20.5519 18.5714 19.0984 18.5714 17.1694C18.5656 16.4973 18.4377 15.8689 18.1934 15.2842ZM11.9874 7.51913C12.5399 7.89071 12.8133 8.4918 12.8133 9.31148C12.8133 10.0601 12.5167 10.612 11.9292 10.9672C11.3418 11.3224 10.4519 11.5027 9.25954 11.5027H7.21802V6.96175H9.47475C10.5973 6.95628 11.4348 7.14754 11.9874 7.51913ZM12.79 18.847C12.2898 19.2186 11.5395 19.3989 10.5391 19.3989H7.21802V14.6284H10.7834C11.4348 14.6284 11.9641 14.7213 12.3654 14.9071C12.7668 15.0929 13.0634 15.3716 13.2553 15.7432C13.4473 16.1148 13.5403 16.5902 13.5403 17.153C13.5462 17.918 13.2961 18.4754 12.79 18.847Z" fill="#F7931A"/>
</svg>
