<svg width="131" height="24" viewBox="0 0 131 24" fill="none" xmlns="http://www.w3.org/2000/svg">
<g clip-path="url(#clip0_2016_31096)">
<path d="M57.5083 15.7809V11.096C57.5083 9.33133 56.3862 8.14451 54.5785 8.12886C54.0635 8.09526 53.5489 8.20069 53.0884 8.43417C52.6279 8.66764 52.2383 9.02061 51.9603 9.45629C51.7069 9.0336 51.3444 8.6872 50.9111 8.45359C50.4777 8.21997 49.9895 8.10779 49.4979 8.12886C49.0694 8.10729 48.6427 8.19824 48.26 8.39272C47.8773 8.5872 47.552 8.87846 47.3162 9.23767V8.31628H45.6953V15.7809H47.3317V11.6425C47.3317 10.3464 48.0486 9.65939 49.1551 9.65939C50.2304 9.65939 50.7759 10.362 50.7759 11.627V15.7809H52.4123V11.6425C52.4123 10.3464 53.1603 9.65939 54.2356 9.65939C55.3421 9.65939 55.8719 10.362 55.8719 11.627V15.7809H57.5083ZM81.7265 8.31628H79.0772V6.05197H77.4408V8.31628H75.9291V9.79985H77.4408V13.2042C77.4408 14.9377 78.111 15.9684 80.0278 15.9684C80.7439 15.9705 81.4461 15.7702 82.0537 15.3905L81.5863 14.0006C81.1516 14.2604 80.6583 14.4055 80.1525 14.4223C79.3421 14.4223 79.0772 13.9225 79.0772 13.173V9.79985H81.7265V8.31628ZM95.5499 8.12886C95.1547 8.11719 94.7637 8.21259 94.4182 8.40498C94.0726 8.59738 93.7852 8.87964 93.5863 9.22201V8.31628H91.9811V15.7809H93.6018V11.5957C93.6018 10.362 94.1317 9.67489 95.1916 9.67489C95.5382 9.67012 95.8825 9.73381 96.2046 9.86233L96.7032 8.33193C96.3331 8.19914 95.9431 8.13046 95.5499 8.12886ZM74.6512 8.90976C73.7338 8.36309 72.679 8.09204 71.6122 8.12886C69.7264 8.12886 68.5109 9.0346 68.5109 10.5181C68.5109 11.7363 69.4148 12.4859 71.0823 12.7202L71.846 12.8294C72.7342 12.9543 73.1551 13.1885 73.1551 13.6102C73.1551 14.188 72.5628 14.516 71.4564 14.516C70.5663 14.5416 69.6936 14.2666 68.9784 13.7352L68.2148 15C69.1588 15.6608 70.2897 16.0002 71.4408 15.9684C73.5914 15.9684 74.8381 14.9532 74.8381 13.5321C74.8381 12.2203 73.8564 11.5332 72.2356 11.2989L71.472 11.1896C70.7707 11.096 70.2097 10.9555 70.2097 10.4558C70.2097 9.90916 70.7394 9.58125 71.6278 9.58125C72.4436 9.59354 73.2427 9.81391 73.9499 10.2215L74.6512 8.90976ZM118.069 8.12886C117.674 8.11718 117.283 8.21257 116.938 8.40497C116.592 8.59736 116.305 8.87963 116.106 9.22201V8.31628H114.501V15.7809H116.121V11.5957C116.121 10.362 116.651 9.67489 117.711 9.67489C118.058 9.6701 118.402 9.73379 118.724 9.86233L119.223 8.33193C118.853 8.19913 118.463 8.13046 118.069 8.12886ZM97.1862 12.0485C97.1862 14.313 98.7604 15.9684 101.16 15.9684C102.133 16.0173 103.09 15.6998 103.841 15.0781L103.062 13.7664C102.501 14.1944 101.818 14.4299 101.114 14.4378C99.8201 14.4223 98.8695 13.4853 98.8695 12.0485C98.8695 10.6119 99.8201 9.67488 101.114 9.65939C101.818 9.66735 102.501 9.90283 103.062 10.3308L103.841 9.01907C103.09 8.39745 102.133 8.0799 101.16 8.12886C98.7604 8.12886 97.1862 9.7842 97.1862 12.0485ZM112.366 12.0485V8.31628H110.745V9.22201C110.468 8.86477 110.11 8.57912 109.701 8.38893C109.291 8.19875 108.842 8.10957 108.391 8.12886C106.303 8.12886 104.667 9.7687 104.667 12.0485C104.667 14.3285 106.303 15.9684 108.391 15.9684C108.842 15.9877 109.291 15.8985 109.701 15.7083C110.11 15.5181 110.468 15.2324 110.745 14.8752V15.7809H112.366V12.0485ZM106.334 12.0485C106.334 10.7368 107.191 9.65939 108.594 9.65939C109.934 9.65939 110.838 10.6899 110.838 12.0485C110.838 13.4072 109.934 14.4378 108.594 14.4378C107.191 14.4378 106.334 13.3603 106.334 12.0485ZM86.776 8.12886C84.5941 8.12886 83.0668 9.72172 83.0668 12.0485C83.0668 14.4223 84.6564 15.9684 86.885 15.9684C87.9969 16.0075 89.0843 15.635 89.9396 14.922L89.1447 13.7195C88.5293 14.2138 87.7671 14.4885 86.9785 14.5003C85.9343 14.5003 84.9837 14.0163 84.7499 12.6732H90.2824C90.298 12.4702 90.3135 12.2673 90.3135 12.0485C90.298 9.72172 88.8643 8.12886 86.776 8.12886ZM86.7447 9.58125C87.7889 9.58125 88.459 10.2371 88.6305 11.3927H84.7655C84.9369 10.3152 85.5914 9.58125 86.7447 9.58125ZM127.405 12.0485V5.31799H125.784V9.22201C125.507 8.86479 125.149 8.57913 124.74 8.38895C124.33 8.19877 123.881 8.10958 123.431 8.12886C121.342 8.12886 119.706 9.7687 119.706 12.0485C119.706 14.3285 121.342 15.9684 123.431 15.9684C123.881 15.9876 124.33 15.8985 124.74 15.7083C125.149 15.5181 125.507 15.2324 125.784 14.8752V15.7809H127.405V12.0485ZM129.299 15.0921C129.363 15.0917 129.427 15.1043 129.486 15.1292C129.543 15.1531 129.595 15.1876 129.639 15.2308C129.683 15.274 129.718 15.3253 129.742 15.3818C129.767 15.4399 129.78 15.5024 129.78 15.5655C129.78 15.6287 129.767 15.6912 129.742 15.7493C129.717 15.8055 129.683 15.8566 129.639 15.8996C129.595 15.9429 129.543 15.9776 129.486 16.0018C129.427 16.0271 129.363 16.04 129.299 16.0395C129.204 16.0405 129.111 16.0135 129.032 15.9619C128.952 15.9103 128.89 15.8363 128.852 15.7493C128.827 15.6912 128.814 15.6287 128.814 15.5655C128.814 15.5024 128.827 15.4399 128.852 15.3818C128.901 15.2671 128.993 15.1764 129.108 15.1292C129.169 15.1042 129.233 15.0916 129.299 15.0921ZM129.299 15.935C129.348 15.9354 129.396 15.9255 129.441 15.906C129.485 15.8872 129.524 15.8604 129.557 15.827C129.626 15.7575 129.664 15.6636 129.664 15.5658C129.664 15.4679 129.626 15.374 129.557 15.3045C129.524 15.2712 129.485 15.2446 129.441 15.2262C129.396 15.207 129.348 15.1973 129.299 15.1977C129.249 15.1973 129.199 15.207 129.153 15.2262C129.098 15.2499 129.049 15.2868 129.011 15.3337C128.973 15.3806 128.947 15.4361 128.936 15.4954C128.924 15.5547 128.927 15.6159 128.945 15.6737C128.962 15.7315 128.993 15.7842 129.036 15.827C129.07 15.8607 129.109 15.8875 129.153 15.906C129.199 15.9255 129.249 15.9354 129.299 15.935ZM129.327 15.344C129.373 15.341 129.419 15.3544 129.457 15.3818C129.472 15.3942 129.484 15.4099 129.492 15.4278C129.5 15.4456 129.504 15.465 129.503 15.4845C129.503 15.5012 129.5 15.5179 129.494 15.5334C129.488 15.5489 129.478 15.5629 129.466 15.5745C129.437 15.6001 129.401 15.6154 129.362 15.618L129.506 15.784H129.394L129.261 15.6191H129.218V15.784H129.124V15.344H129.327ZM129.218 15.4265V15.5438H129.325C129.346 15.5448 129.367 15.5398 129.385 15.5292C129.392 15.5243 129.398 15.5176 129.402 15.5098C129.405 15.502 129.407 15.4932 129.407 15.4845C129.407 15.476 129.405 15.4674 129.401 15.4598C129.397 15.4521 129.392 15.4456 129.385 15.441C129.367 15.4305 129.346 15.4255 129.325 15.4265H129.218ZM121.373 12.0485C121.373 10.7368 122.231 9.65939 123.633 9.65939C124.973 9.65939 125.877 10.6899 125.877 12.0485C125.877 13.4072 124.973 14.4378 123.633 14.4378C122.231 14.4378 121.373 13.3603 121.373 12.0485ZM66.6408 12.0485V8.31628H65.02V9.22201C64.7433 8.86477 64.3853 8.57911 63.9759 8.38892C63.5665 8.19874 63.1176 8.10957 62.6667 8.12886C60.5784 8.12886 58.9421 9.7687 58.9421 12.0485C58.9421 14.3285 60.5784 15.9684 62.6667 15.9684C63.1176 15.9877 63.5665 15.8985 63.9759 15.7083C64.3853 15.5181 64.7433 15.2324 65.02 14.8752V15.7809H66.6408V12.0485ZM60.6097 12.0485C60.6097 10.7368 61.4668 9.65939 62.8694 9.65939C64.2096 9.65939 65.1135 10.6899 65.1135 12.0485C65.1135 13.4072 64.2096 14.4378 62.8694 14.4378C61.4668 14.4378 60.6097 13.3603 60.6097 12.0485Z" fill="white"/>
<path d="M25.0161 3.17554H15.215V20.8246H25.0161V3.17554Z" fill="#FF5F00"/>
<path d="M15.8373 12C15.8357 10.3003 16.2201 8.62251 16.9613 7.09364C17.7025 5.56477 18.7812 4.22492 20.1155 3.17552C18.4631 1.87401 16.4786 1.06462 14.3888 0.839862C12.299 0.615104 10.1883 0.984037 8.29785 1.90451C6.40742 2.82498 4.81358 4.25985 3.69849 6.0451C2.58341 7.83035 1.99207 9.89395 1.99207 12C1.99207 14.1061 2.58341 16.1697 3.69849 17.955C4.81358 19.7402 6.40742 21.1751 8.29785 22.0956C10.1883 23.0161 12.299 23.385 14.3888 23.1602C16.4786 22.9355 18.4631 22.1261 20.1155 20.8246C18.7812 19.7752 17.7026 18.4353 16.9613 16.9065C16.2201 15.3776 15.8357 13.6998 15.8373 12Z" fill="#EB001B"/>
<path d="M38.238 12.0001C38.2381 14.1061 37.6468 16.1697 36.5318 17.955C35.4168 19.7402 33.823 21.1751 31.9326 22.0956C30.0422 23.0161 27.9315 23.385 25.8417 23.1602C23.752 22.9355 21.7675 22.1261 20.1151 20.8246C21.4483 19.7741 22.5261 18.4341 23.2672 16.9054C24.0083 15.3768 24.3933 13.6995 24.3933 12.0001C24.3933 10.3006 24.0083 8.62331 23.2672 7.09468C22.5261 5.56605 21.4483 4.22599 20.1151 3.17552C21.7675 1.87401 23.752 1.06461 25.8417 0.839859C27.9315 0.615104 30.0422 0.984053 31.9326 1.90453C33.823 2.82502 35.4168 4.25989 36.5318 6.04514C37.6468 7.8304 38.2381 9.89399 38.238 12.0001Z" fill="#F79E1B"/>
<path d="M37.1701 18.9553V18.594H37.3155V18.5204H36.9452V18.594H37.0907V18.9553H37.1701ZM37.889 18.9553V18.5197H37.7755L37.6449 18.8193L37.5143 18.5197H37.4008V18.9553H37.4809V18.6267L37.6034 18.91H37.6865L37.8089 18.626V18.9553H37.889Z" fill="#F79E1B"/>
</g>
<defs>
<clipPath id="clip0_2016_31096">
<rect width="130.286" height="24" fill="white" transform="translate(0.464844)"/>
</clipPath>
</defs>
</svg>
