<svg width="151" height="37" viewBox="0 0 151 37" fill="none" xmlns="http://www.w3.org/2000/svg">
<g clip-path="url(#clip0_3182_42271)">
<path d="M0 8.19837C1.12111 7.62812 1.28273 7.59586 2.06007 7.76357C2.06007 6.73531 2.07547 5.69415 2.05495 4.65299C2.04083 3.92922 1.95232 3.20802 1.9395 2.48424C1.93052 1.99656 2.29353 1.75271 2.76685 1.77465C3.05675 1.78755 3.3582 1.61338 3.64553 1.63403C4.90005 1.7282 5.09889 2.03268 4.88851 3.29704C4.84619 3.55121 4.90518 3.85697 5.01292 4.09436C5.4837 5.13293 5.98782 6.15475 6.48166 7.183C6.92035 8.09516 6.96398 8.17381 7.99274 8.34546C9.02915 8.51833 10.081 8.60093 11.1252 8.72345C11.814 8.80474 12.5119 8.99696 13.1904 8.94146C14.0549 8.87183 14.949 8.71055 15.7353 8.36864C16.0868 8.21641 16.2561 7.54424 16.4216 7.0772C16.8256 5.93412 17.0206 5.87865 18.2572 6.07863C19.6772 6.30698 21.1202 6.39343 22.5545 6.52631C23.1419 6.58049 23.7153 6.65017 24.2437 6.18442C24.4285 6.02186 24.8723 6.11992 25.1916 6.15604C26.5283 6.3031 27.8649 6.45148 29.195 6.63855C30.5857 6.83337 31.9645 7.12494 33.3589 7.26559C33.9361 7.32362 34.5401 7.04238 35.1367 7.01529C35.6511 6.99076 36.1463 6.66693 36.7106 7.00882C36.9737 7.16753 37.4238 7.06431 37.7779 7.00755C38.2281 6.93529 38.6668 6.71984 39.0222 7.22944C39.067 7.29397 39.3211 7.20235 39.4801 7.19462C39.7905 7.17914 40.1613 7.07464 40.1305 7.62683C39.6404 7.71584 39.1529 7.80357 38.6656 7.89131C38.6681 7.94806 38.6693 8.00483 38.6721 8.0616C38.9694 8.07966 39.2671 8.09772 39.6058 8.11837C39.5443 8.88342 40.1638 8.77764 40.6025 8.84474C42.0955 9.07564 43.5913 9.28206 45.0908 9.47175C46.3454 9.63043 47.6101 9.71556 48.8608 9.89749C50.0819 10.0743 51.2916 10.3297 52.5063 10.5542C52.5434 10.5607 52.5885 10.589 52.6102 10.62C53.3068 11.6676 54.7009 12.1682 54.9164 13.5976C54.932 13.7022 55.0422 13.8235 55.141 13.8776C55.8055 14.2402 56.4777 14.5872 57.1486 14.9369C57.2217 14.9756 57.3217 15.0491 57.3741 15.0272C58.7018 14.435 60.0565 14.973 61.3956 14.942C62.3808 14.9201 63.3685 15.1046 64.3562 15.1575C65.0258 15.1923 65.2657 15.6632 65.2733 16.1703C65.3131 18.6539 65.2914 21.14 65.2914 23.6416C64.2087 24.333 63.3057 23.724 62.4077 23.0288C60.844 21.8173 59.2227 20.6742 57.7154 19.3956C56.7355 18.5648 55.5566 18.1855 54.465 17.6088C54.2546 17.4979 53.984 17.5004 53.712 17.445C53.3325 18.6925 53.4003 19.8743 53.6543 21.0883C53.9174 22.345 54.0943 23.6236 54.247 24.9007C54.3161 25.4762 53.4953 26.2683 52.9194 26.2592C52.2868 26.2491 51.6545 26.1986 51.1645 26.1729C50.6963 23.9485 50.2474 21.8147 49.7983 19.6847C48.5876 19.6847 47.4856 19.6847 46.299 19.6847C45.986 20.0266 47.1251 21.2187 45.7219 21.1155C45.0715 23.1191 44.5354 25.1343 43.7619 27.0541C42.8947 29.2061 41.7505 31.2289 40.2111 32.9978C39.9599 33.2867 39.8392 33.6867 39.6161 34.0055C39.5262 34.1332 39.3236 34.2544 39.1736 34.2531C38.7091 34.2493 38.1524 34.439 37.8613 33.8777C37.3071 32.8081 36.7428 31.74 36.2565 30.6381C36.0001 30.0563 35.9014 29.4047 35.7461 28.8408C39.1953 25.3174 40.6756 20.9425 41.3374 16.0825C40.3279 15.947 39.3415 15.7432 38.35 15.7084C37.7933 15.689 37.2249 15.9458 36.6632 16.0812C35.6125 16.3341 34.6826 16.1496 33.7243 15.5858C33.0523 15.1911 32.2006 15.071 31.4128 14.9175C29.4799 14.5408 27.5249 14.2686 25.6022 13.8467C24.726 13.6545 23.9243 13.1358 23.0533 12.9036C22.3902 12.7268 21.6694 12.7694 20.9741 12.7113C19.4373 12.5849 17.9019 12.4456 16.3651 12.3398C16.0996 12.3217 15.7482 12.1411 15.5711 12.6223C15.5224 12.7539 15.0452 12.7513 14.763 12.7617C14.5129 12.7707 14.2589 12.7113 13.9523 12.6752C13.8792 12.0636 13.3686 12.0998 12.9056 12.0676C10.9636 11.9347 9.02147 11.7914 7.07815 11.6844C6.26233 11.6392 5.44265 11.7024 4.62555 11.6663C4.29716 11.6521 3.97263 11.5089 3.64938 11.4134C3.2774 11.3024 2.90796 11.1799 2.47824 11.0419C2.44489 10.9438 2.34227 10.7696 2.3333 10.5903C2.3115 10.1284 2.09984 9.98009 1.64575 9.98785C1.09546 9.99552 0.547728 9.91684 0 9.87684C0 9.31692 0 8.7583 0 8.19837ZM13.8125 11.0484C13.1596 10.9955 12.5708 10.9567 11.9834 10.8987C10.7686 10.7787 9.55642 10.6445 8.34165 10.5258C7.77724 10.4703 7.20642 10.3903 6.64328 10.4174C6.23667 10.4368 5.83646 10.6161 5.47728 10.7116C5.73897 11.0109 12.2027 11.6959 13.6919 11.5115C13.7292 11.3695 13.7663 11.2264 13.8125 11.0484ZM23.0956 9.11956C21.5706 8.91183 20.0825 8.7041 18.5907 8.51319C18.4804 8.49899 18.2893 8.57375 18.2482 8.6615C18.1199 8.93893 18.5022 9.464 18.828 9.49624C19.7259 9.58529 20.6341 9.61753 21.5192 9.78143C22.1951 9.90655 22.8045 10.1013 23.0956 9.11956ZM15.4826 11.776C18.1136 11.9876 20.5238 12.1811 22.934 12.3746C22.9623 12.3011 22.9904 12.2262 23.0175 12.1527C22.8597 12.0392 22.7122 11.8443 22.5441 11.8237C21.6243 11.7076 20.7021 11.6018 19.7772 11.5541C18.4996 11.4883 17.2208 11.4702 15.9405 11.4508C15.8405 11.4495 15.7379 11.5902 15.4826 11.776ZM47.5677 16.9069C47.5279 17.6217 47.5125 18.2126 47.456 18.7996C47.4124 19.255 47.6203 19.5389 48.0309 19.5414C48.4566 19.544 49.0597 19.8459 49.2187 19.0654C48.9851 19.0421 48.7568 19.019 48.6068 19.0034C48.6761 18.3777 48.7414 17.779 48.8132 17.1353C48.3823 17.0553 48.0397 16.9933 47.5677 16.9069ZM3.49545 7.12623C4.04831 7.1817 4.55757 7.23332 5.08606 7.2875C4.82565 6.5018 4.42672 5.95089 3.49545 6.03477C3.49545 6.37795 3.49545 6.73016 3.49545 7.12623Z" fill="white"/>
<path d="M80.8073 0C81.8632 0 82.69 0.108829 83.2883 0.326487C83.8874 0.544144 84.3119 0.919607 84.5616 1.45287C84.8228 1.98612 84.9534 2.73161 84.9534 3.6893C84.9534 4.64699 84.8285 5.39247 84.5779 5.92573C84.3388 6.45899 83.9413 6.83445 83.3863 7.05211C82.8312 7.25888 82.0803 7.36227 81.1338 7.36227C80.6331 7.36227 80.1434 7.3405 79.6646 7.29697C79.1857 7.25345 78.7395 7.19903 78.326 7.13373C77.9124 7.06843 77.5587 7.00314 77.2649 6.93784C76.9711 6.86166 76.7697 6.79092 76.6609 6.72562L76.7099 5.48497C77.3519 5.48497 78.0158 5.48497 78.7014 5.48497C79.3979 5.48497 80.0835 5.48497 80.7583 5.48497C81.1936 5.47409 81.5309 5.41968 81.7702 5.32173C82.0207 5.22378 82.1946 5.04422 82.2925 4.78303C82.4019 4.52184 82.4558 4.15726 82.4558 3.6893C82.4558 3.21045 82.4019 2.84043 82.2925 2.57924C82.1946 2.31806 82.0207 2.13849 81.7702 2.04054C81.5309 1.93172 81.1936 1.8773 80.7583 1.8773C79.757 1.8773 78.8973 1.88274 78.1791 1.89362C77.4608 1.9045 76.9764 1.92627 76.7262 1.95892L76.4813 0.163243C76.9384 0.108829 77.3682 0.0707388 77.7709 0.0489733C78.1736 0.0272071 78.6089 0.0163241 79.0769 0.0163241C79.5557 0.00544137 80.1325 0 80.8073 0ZM78.9789 0.163243V11.427H76.4813V0.163243H78.9789ZM91.4333 0.163243C91.6398 0.163243 91.8194 0.223099 91.972 0.342812C92.1353 0.462523 92.2438 0.620324 92.2985 0.816216L95.5634 11.427H93.0168L90.7151 3.1506C90.6718 2.96558 90.6277 2.78058 90.5845 2.59557C90.5412 2.39968 90.5029 2.21466 90.4702 2.04054H90.0295C89.9968 2.21466 89.9584 2.39968 89.9152 2.59557C89.8825 2.78058 89.8393 2.96558 89.7846 3.1506L87.4829 11.427H84.9199L88.2011 0.816216C88.2558 0.620324 88.3587 0.462523 88.5113 0.342812C88.6745 0.223099 88.8598 0.163243 89.0663 0.163243H91.4333ZM93.1637 6.5787V8.456H87.3196V6.5787H93.1637ZM104.603 0.163243L100.799 7.852H98.4487L94.6288 0.163243H97.2244L99.118 4.30962C99.216 4.52728 99.2976 4.76126 99.3629 5.01157C99.4282 5.26188 99.4878 5.5013 99.5424 5.72984H99.7057C99.771 5.5013 99.8363 5.26188 99.9016 5.01157C99.9669 4.76126 100.043 4.52728 100.13 4.30962L102.007 0.163243H104.603ZM100.865 6.33384V11.427H98.3671V6.33384H100.865ZM113.104 0.0326492C114.083 0.0326492 114.862 0.119712 115.438 0.293838C116.026 0.457081 116.45 0.750919 116.712 1.17535C116.973 1.59978 117.103 2.19834 117.103 2.97103C117.103 3.77636 116.946 4.39124 116.63 4.81568C116.325 5.22923 115.819 5.46865 115.112 5.53395V5.63189C115.983 5.70807 116.592 6.00191 116.94 6.51341C117.289 7.01402 117.462 7.71596 117.462 8.61925C117.462 9.39196 117.327 9.99049 117.054 10.4149C116.793 10.8394 116.38 11.1387 115.814 11.3128C115.259 11.476 114.53 11.5576 113.626 11.5576C112.897 11.5576 112.261 11.5522 111.716 11.5413C111.183 11.5413 110.688 11.5304 110.231 11.5087C109.774 11.4869 109.306 11.4597 108.827 11.427L109.072 9.69665C109.333 9.70751 109.834 9.71844 110.574 9.7293C111.325 9.74015 112.195 9.74562 113.186 9.74562C113.643 9.74562 114.002 9.70212 114.263 9.61503C114.524 9.52794 114.704 9.37016 114.802 9.14162C114.911 8.90223 114.965 8.5648 114.965 8.12951C114.965 7.66155 114.911 7.30785 114.802 7.06843C114.693 6.81812 114.503 6.644 114.23 6.54606C113.969 6.44811 113.605 6.39369 113.137 6.38281H109.055V4.79935H113.104C113.507 4.78847 113.822 4.74494 114.051 4.66876C114.291 4.59258 114.459 4.44566 114.557 4.228C114.655 4.01034 114.704 3.70562 114.704 3.31384C114.704 2.91117 114.65 2.60645 114.54 2.39968C114.442 2.18202 114.269 2.0351 114.018 1.95892C113.768 1.88274 113.42 1.84465 112.973 1.84465C112.364 1.84465 111.826 1.84465 111.357 1.84465C110.889 1.84465 110.471 1.85009 110.1 1.86097C109.73 1.86097 109.388 1.87185 109.072 1.89362L108.827 0.163243C109.263 0.119712 109.681 0.092505 110.084 0.0816216C110.498 0.059856 110.944 0.0489733 111.422 0.0489733C111.902 0.0380906 112.462 0.0326492 113.104 0.0326492ZM111.276 0.163243V11.427H108.827V0.163243H111.276ZM127.862 0.163243L124.058 7.852H121.708L117.888 0.163243H120.483L122.377 4.30962C122.475 4.52728 122.556 4.76126 122.622 5.01157C122.687 5.26188 122.747 5.5013 122.801 5.72984H122.965C123.03 5.5013 123.095 5.26188 123.16 5.01157C123.226 4.76126 123.302 4.52728 123.389 4.30962L125.266 0.163243H127.862ZM124.124 6.33384V11.427H121.626V6.33384H124.124Z" fill="white"/>
<path d="M83.25 17.5259C84.1731 17.5433 85.1917 17.6042 86.3059 17.7087C87.42 17.8132 88.4999 18.0309 89.5446 18.3617L89.2312 21.5482C88.4648 21.5308 87.5245 21.5133 86.4103 21.496C85.3134 21.4786 84.2335 21.4698 83.1716 21.4698C82.7708 21.4698 82.4313 21.4872 82.153 21.5221C81.8918 21.5395 81.6738 21.5917 81.5001 21.6788C81.3434 21.7484 81.2302 21.8616 81.1605 22.0183C81.0909 22.1577 81.0561 22.3579 81.0561 22.6191C81.0561 23.037 81.178 23.3591 81.4217 23.5855C81.6828 23.7944 82.1358 24.0121 82.7798 24.2384L86.1492 25.4922C87.6118 26.0668 88.6305 26.7807 89.2051 27.6339C89.7968 28.4697 90.0931 29.558 90.0931 30.8988C90.0931 31.9087 89.9715 32.7619 89.7275 33.4584C89.4834 34.1549 89.0835 34.7034 88.526 35.1039C87.9865 35.5044 87.2633 35.8004 86.3581 35.992C85.4701 36.1835 84.3641 36.2793 83.041 36.2793C82.4313 36.2793 81.5349 36.2358 80.3508 36.1487C79.1842 36.0616 77.8609 35.8352 76.3808 35.4696L76.6681 32.0219C77.7128 32.0393 78.6357 32.0654 79.4367 32.1002C80.2551 32.1176 80.9603 32.1351 81.5523 32.1525C82.1619 32.1525 82.6403 32.1525 82.9888 32.1525C83.5805 32.1525 84.0335 32.1264 84.347 32.0741C84.6604 32.0045 84.8783 31.8913 84.9999 31.7346C85.1215 31.5605 85.1828 31.3167 85.1828 31.0032C85.1828 30.7072 85.1395 30.4721 85.0522 30.298C84.9648 30.1239 84.8081 29.9759 84.582 29.854C84.3731 29.7321 84.0858 29.6102 83.7201 29.4883L80.1158 28.0518C78.688 27.4598 77.6781 26.7546 77.086 25.9362C76.494 25.1178 76.1979 24.0469 76.1979 22.7235C76.1979 21.6788 76.3285 20.8256 76.5897 20.1639C76.8509 19.5022 77.2514 18.9798 77.7912 18.5968C78.3484 18.2137 79.0798 17.9438 79.9852 17.7871C80.8907 17.613 81.9791 17.5259 83.25 17.5259ZM107.818 17.8915L103.43 25.0481C103.221 25.3964 102.986 25.7011 102.725 25.9623C102.464 26.2061 102.211 26.3976 101.967 26.5369V26.6153C102.211 26.7546 102.499 26.9809 102.829 27.2944C103.161 27.5904 103.422 27.9212 103.613 28.2869L108.105 35.9136H102.673L97.5272 26.4847L102.568 17.8915H107.818ZM97.3705 17.8915V22.6974C97.3705 23.3243 97.3101 23.9685 97.1877 24.6302C97.0832 25.2745 96.9183 25.8839 96.6914 26.4586C96.8661 26.9983 97.0228 27.5817 97.1616 28.2085C97.3011 28.818 97.3705 29.3751 97.3705 29.8801V35.9136H92.4863V17.8915H97.3705ZM99.0682 24.9175V28.1824H95.934V24.9175H99.0682ZM114.511 17.8915V35.9136H109.653V17.8915H114.511ZM133.619 17.8915V34.1898C133.619 35.339 133.054 35.9136 131.922 35.9136H129.728C129.205 35.9136 128.814 35.7917 128.552 35.5479C128.309 35.3041 128.056 34.9472 127.795 34.4771L123.381 26.7981C123.172 26.3628 122.963 25.8927 122.754 25.3877C122.545 24.8827 122.371 24.3778 122.232 23.8728H121.997C122.067 24.3778 122.119 24.9001 122.153 25.4399C122.206 25.9623 122.232 26.4673 122.232 26.9548V35.9136H117.661V19.6154C117.661 18.4662 118.235 17.8915 119.385 17.8915H121.553C122.075 17.8915 122.459 18.0134 122.702 18.2572C122.946 18.501 123.207 18.8579 123.485 19.3281L127.717 26.7197C127.961 27.1376 128.196 27.599 128.422 28.104C128.649 28.609 128.866 29.1401 129.075 29.6973H129.31C129.258 29.1575 129.214 28.6264 129.179 28.104C129.145 27.5817 129.127 27.0593 129.127 26.5369L129.101 17.8915H133.619ZM143.191 17.5259C144.114 17.5433 145.132 17.6042 146.247 17.7087C147.361 17.8132 148.441 18.0309 149.486 18.3617L149.172 21.5482C148.406 21.5308 147.466 21.5133 146.352 21.496C145.255 21.4786 144.175 21.4698 143.113 21.4698C142.712 21.4698 142.373 21.4872 142.094 21.5221C141.833 21.5395 141.615 21.5917 141.441 21.6788C141.285 21.7484 141.171 21.8616 141.102 22.0183C141.032 22.1577 140.997 22.3579 140.997 22.6191C140.997 23.037 141.119 23.3591 141.363 23.5855C141.624 23.7944 142.076 24.0121 142.721 24.2384L146.09 25.4922C147.553 26.0668 148.572 26.7807 149.146 27.6339C149.738 28.4697 150.034 29.558 150.034 30.8988C150.034 31.9087 149.912 32.7619 149.669 33.4584C149.425 34.1549 149.024 34.7034 148.467 35.1039C147.927 35.5044 147.205 35.8004 146.299 35.992C145.411 36.1835 144.305 36.2793 142.982 36.2793C142.373 36.2793 141.476 36.2358 140.292 36.1487C139.125 36.0616 137.802 35.8352 136.322 35.4696L136.609 32.0219C137.654 32.0393 138.576 32.0654 139.378 32.1002C140.196 32.1176 140.901 32.1351 141.494 32.1525C142.102 32.1525 142.582 32.1525 142.93 32.1525C143.522 32.1525 143.975 32.1264 144.288 32.0741C144.602 32.0045 144.819 31.8913 144.941 31.7346C145.063 31.5605 145.124 31.3167 145.124 31.0032C145.124 30.7072 145.08 30.4721 144.993 30.298C144.906 30.1239 144.749 29.9759 144.523 29.854C144.314 29.7321 144.027 29.6102 143.661 29.4883L140.057 28.0518C138.629 27.4598 137.619 26.7546 137.027 25.9362C136.435 25.1178 136.139 24.0469 136.139 22.7235C136.139 21.6788 136.27 20.8256 136.531 20.1639C136.792 19.5022 137.192 18.9798 137.732 18.5968C138.289 18.2137 139.02 17.9438 139.926 17.7871C140.832 17.613 141.92 17.5259 143.191 17.5259Z" fill="#AB5FE0"/>
</g>
<defs>
<clipPath id="clip0_3182_42271">
<rect width="151" height="36.7297" fill="white"/>
</clipPath>
</defs>
</svg>
