<svg width="151" height="40" viewBox="0 0 151 40" fill="none" xmlns="http://www.w3.org/2000/svg">
<path d="M145.524 8.46442L141.92 31.0511C141.907 31.134 141.912 31.2189 141.934 31.2998C141.957 31.3806 141.998 31.4555 142.053 31.5192C142.107 31.5829 142.176 31.6338 142.252 31.6684C142.329 31.703 142.413 31.7205 142.497 31.7195H146.762C146.912 31.7208 147.058 31.6683 147.173 31.5715C147.288 31.4746 147.365 31.3399 147.389 31.1917L150.993 8.6051C151.006 8.52216 151.001 8.43728 150.978 8.3564C150.955 8.27553 150.915 8.20063 150.86 8.13694C150.805 8.07325 150.737 8.02232 150.66 7.98772C150.583 7.95312 150.5 7.93569 150.416 7.93664H146.151C146 7.93367 145.853 7.98558 145.738 8.0827C145.622 8.17982 145.546 8.3155 145.524 8.46442ZM140.97 15.0557H136.923C136.773 15.0543 136.627 15.1066 136.512 15.2033C136.397 15.3 136.321 15.4346 136.297 15.5826L136.163 16.4141C136.163 16.4141 133.02 13.0145 127.456 15.312C124.263 16.6274 122.731 19.3451 122.079 21.3361C122.079 21.3361 120.009 27.3871 124.69 30.7177C124.69 30.7177 129.03 33.9211 133.918 30.5206L133.833 31.0511C133.814 31.1757 133.836 31.3032 133.896 31.4143C133.956 31.5253 134.051 31.6136 134.166 31.6658C134.242 31.7016 134.326 31.7195 134.41 31.7195H138.459C138.61 31.7225 138.757 31.6706 138.872 31.5735C138.988 31.4763 139.064 31.3407 139.086 31.1917L141.549 15.7242C141.563 15.6413 141.558 15.5565 141.535 15.4757C141.512 15.395 141.471 15.3204 141.415 15.2573C141.361 15.1931 141.292 15.1417 141.215 15.1067C141.138 15.0717 141.054 15.0549 140.97 15.0557ZM135.015 23.604C134.858 24.6847 134.31 25.6708 133.475 26.3773C132.636 27.0863 131.569 27.4692 130.47 27.4552C130.039 27.4602 129.61 27.3979 129.198 27.2706C127.451 26.7151 126.454 25.0538 126.741 23.2528C126.9 22.1726 127.448 21.1873 128.283 20.4813C129.121 19.7719 130.187 19.3878 131.286 19.3998C131.717 19.3953 132.146 19.4582 132.558 19.5861C134.316 20.1381 135.308 21.8021 135.02 23.6049H135.015V23.604ZM113.407 24.0314C115.602 24.0314 117.724 23.2537 119.391 21.8397C121.055 20.4305 122.156 18.4726 122.496 16.3218C123.204 11.8479 119.675 7.94292 114.672 7.94292H106.612C106.462 7.94148 106.316 7.99397 106.201 8.09083C106.086 8.18769 106.01 8.32249 105.986 8.47069L102.381 31.0573C102.362 31.1819 102.384 31.3095 102.444 31.4205C102.504 31.5315 102.598 31.6199 102.714 31.672C102.791 31.7079 102.873 31.7258 102.958 31.7258H107.225C107.376 31.7272 107.522 31.6747 107.637 31.5779C107.752 31.481 107.828 31.3462 107.852 31.198L108.91 24.5655C108.932 24.4164 109.008 24.2805 109.123 24.1832C109.239 24.0859 109.386 24.0339 109.537 24.0368L113.407 24.0314ZM116.977 16.1184C116.714 17.7726 115.422 18.9903 112.951 18.9903H109.792L110.751 12.9751H113.854C116.408 12.9796 117.24 14.4715 116.977 16.1229V16.1184Z" fill="white"/>
<path d="M97.5199 15.4388L92.6388 23.5973L90.1614 15.4989C90.1227 15.3696 90.0428 15.2565 89.9339 15.1764C89.825 15.0964 89.693 15.0539 89.5578 15.0553H85.1528C85.0389 15.0538 84.9282 15.0934 84.8412 15.1668C84.7542 15.2403 84.6968 15.3426 84.6794 15.4549C84.6687 15.5294 84.6764 15.6054 84.7019 15.6763L89.141 29.3177L85.1259 35.7459C85.0918 35.7988 85.0689 35.8581 85.0586 35.9202C85.0482 35.9823 85.0507 36.0458 85.0659 36.1068C85.081 36.1679 85.1085 36.2252 85.1466 36.2753C85.1847 36.3254 85.2327 36.3673 85.2875 36.3982C85.361 36.4403 85.4445 36.462 85.5292 36.461H90.2737C90.4091 36.4614 90.5423 36.427 90.6605 36.3611C90.7787 36.2952 90.8778 36.2 90.9483 36.0846L103.348 15.7739C103.393 15.7032 103.417 15.6216 103.419 15.5379C103.421 15.4542 103.4 15.3716 103.358 15.299C103.316 15.2263 103.255 15.166 103.182 15.1246C103.109 15.0831 103.026 15.062 102.942 15.0634H98.1989C98.0629 15.0621 97.9288 15.0961 97.8098 15.1618C97.6908 15.2276 97.5909 15.3231 97.5199 15.4388ZM82.6557 15.0553H78.6055C78.4548 15.0539 78.3086 15.1065 78.1936 15.2035C78.0785 15.3005 78.0022 15.4355 77.9785 15.584L77.8474 16.4146C77.8474 16.4146 74.7017 13.015 69.1371 15.3125C65.9456 16.6279 64.4123 19.3456 63.7629 21.3366C63.7629 21.3366 61.6915 27.3876 66.3714 30.7182C66.3714 30.7182 70.7126 33.9216 75.6 30.5211L75.5155 31.0515C75.4957 31.1762 75.5174 31.3039 75.5775 31.4149C75.6375 31.526 75.7326 31.6143 75.8479 31.6662C75.9242 31.7021 76.0078 31.72 76.0922 31.72H80.1415C80.2918 31.7211 80.4376 31.6684 80.5524 31.5716C80.6672 31.4748 80.7436 31.3403 80.7676 31.1922L83.2315 15.7247C83.2515 15.5999 83.2299 15.472 83.1698 15.3607C83.1097 15.2495 83.0146 15.161 82.8991 15.1091C82.8225 15.0739 82.74 15.0556 82.6557 15.0553ZM76.7003 23.6054C76.5409 24.6848 75.993 25.6693 75.1589 26.3751C74.321 27.084 73.2548 27.4677 72.1561 27.4557C71.7257 27.4605 71.2971 27.3982 70.886 27.2711C69.1398 26.7156 68.1436 25.0543 68.4301 23.2523C68.5898 22.1698 69.1401 21.1827 69.9778 20.4764C70.8188 19.767 71.8884 19.3848 72.9897 19.4002C73.4208 19.3958 73.8511 19.4585 74.2625 19.5866C76.0024 20.1386 76.9931 21.8016 76.7057 23.6054H76.7003ZM55.093 24.0319C57.2837 24.0308 59.4027 23.253 61.0717 21.8375C62.7339 20.4283 63.8341 18.4711 64.1725 16.3214C64.8821 11.8484 61.352 7.94339 56.3505 7.94339H48.2897C48.1393 7.94189 47.9933 7.99422 47.8783 8.09089C47.7632 8.18755 47.6867 8.32216 47.6627 8.47027L44.0697 31.0506C44.0496 31.1754 44.0713 31.3033 44.1314 31.4146C44.1914 31.5258 44.2866 31.6143 44.402 31.6662C44.4784 31.7012 44.5619 31.72 44.6464 31.72H48.9112C49.0619 31.7214 49.2081 31.6688 49.3232 31.5718C49.4382 31.4748 49.5146 31.3398 49.5382 31.1913L50.5946 24.5588C50.617 24.4099 50.693 24.2742 50.8084 24.1771C50.9237 24.0799 51.0706 24.028 51.2215 24.031L55.093 24.0319ZM58.6626 16.118C58.3994 17.7721 57.1086 18.9899 54.6376 18.9899H51.4784L52.436 12.9747H55.5385C58.094 12.9792 58.9249 14.472 58.6626 16.1225V16.118Z" fill="white"/>
<path d="M27.5214 9.10355C27.6175 4.11616 23.4936 0.290039 17.823 0.290039H6.09372C5.82039 0.289911 5.556 0.387152 5.34817 0.564246C5.14033 0.74134 5.00273 0.986646 4.96013 1.25598L0.26051 30.5504C0.239483 30.6832 0.247546 30.8189 0.284144 30.9482C0.320741 31.0776 0.385004 31.1975 0.472507 31.2997C0.560011 31.4019 0.668676 31.4839 0.791021 31.5402C0.913366 31.5965 1.04649 31.6256 1.18121 31.6257H8.13004L7.04407 38.4088C7.02304 38.5415 7.0311 38.6772 7.0677 38.8066C7.1043 38.9359 7.16856 39.0558 7.25606 39.158C7.34357 39.2602 7.45223 39.3423 7.57458 39.3985C7.69692 39.4548 7.83004 39.484 7.96477 39.484H13.6255C13.8986 39.484 14.142 39.3863 14.3504 39.2098C14.557 39.0324 14.5911 38.7878 14.6342 38.5181L16.296 28.7655C16.3382 28.4967 16.4757 28.1472 16.6831 27.9698C16.8906 27.7924 17.0721 27.6956 17.3461 27.6956H20.8097C26.3635 27.6956 31.0748 23.7575 31.9363 18.2809C32.5462 14.3938 30.8754 10.8571 27.5214 9.10355Z" fill="#E8E8E9"/>
<path d="M9.63407 20.8224L7.90315 31.7703L6.81628 38.6376C6.79538 38.7704 6.80357 38.9061 6.84029 39.0354C6.877 39.1647 6.94137 39.2845 7.02896 39.3866C7.11654 39.4887 7.22527 39.5707 7.34765 39.6268C7.47003 39.683 7.60316 39.712 7.73788 39.712H13.7292C14.0023 39.7119 14.2663 39.6145 14.4738 39.4374C14.6813 39.2603 14.8186 39.0151 14.861 38.746L16.4401 28.765C16.4827 28.4958 16.6201 28.2506 16.8278 28.0735C17.0354 27.8965 17.2996 27.7991 17.5728 27.799H21.0993C26.6531 27.799 31.3644 23.7579 32.2268 18.2812C32.8376 14.3942 30.8758 10.8566 27.5218 9.10303C27.5128 9.517 27.4768 9.93008 27.4131 10.3396C26.5516 15.8144 21.8385 19.8565 16.2865 19.8565H10.7668C10.4935 19.8568 10.2293 19.9543 10.0217 20.1315C9.81407 20.3088 9.67662 20.5532 9.63407 20.8224Z" fill="#B3B4B7"/>
<path d="M7.90178 31.7702H0.931383C0.796684 31.7702 0.663591 31.7411 0.54128 31.6848C0.41897 31.6285 0.310352 31.5464 0.222916 31.4442C0.13548 31.342 0.0713074 31.2221 0.0348219 31.0927C-0.00166364 30.9634 -0.00959353 30.8277 0.011579 30.695L4.7112 0.965938C4.75377 0.696759 4.89125 0.451573 5.09889 0.274498C5.30654 0.0974227 5.57072 8.51951e-05 5.84389 0H17.8229C23.4935 0 27.6174 4.11644 27.5213 9.10294C26.1101 8.36459 24.452 7.94256 22.6357 7.94256H12.649C12.3757 7.94243 12.1113 8.03967 11.9035 8.21676C11.6956 8.39386 11.558 8.63916 11.5154 8.90849L9.63449 20.8223L7.90088 31.7702H7.90178Z" fill="white"/>
</svg>
