<svg width="151" height="26" viewBox="0 0 151 26" fill="none" xmlns="http://www.w3.org/2000/svg">
<path d="M27.2008 11.635C27.1838 11.1112 26.9369 10.8409 26.4575 10.8231H23.8968C23.2907 10.8602 22.9776 11.1927 22.963 11.8182V16.4239C22.9776 17.0696 23.3238 17.3988 23.9968 17.4174H26.3437C26.5874 17.4174 26.79 17.327 26.9514 17.1422C27.1201 17.0034 27.2008 16.825 27.2008 16.6039V11.635ZM19.6752 10.9813C19.6921 9.82885 19.9488 8.95322 20.4467 8.3544C20.7074 8.10341 21.0334 7.89359 21.4305 7.72007C21.8429 7.53526 22.2423 7.44568 22.6297 7.44568H27.3299C29.4032 7.46344 30.4572 8.59732 30.4902 10.8498V17.7822C30.4749 18.582 30.1618 19.276 29.5565 19.8563C28.9569 20.4664 28.241 20.7771 27.4074 20.7956H22.963V25.7936H19.6752V10.9813Z" fill="#008AC9"/>
<path d="M36.4241 16.7484C36.4241 16.9413 36.5129 17.0938 36.6864 17.2084C36.8414 17.3456 37.0367 17.4174 37.2836 17.4174H39.8088C40.3794 17.4174 40.6756 17.1963 40.6925 16.7484V15.8058C40.6925 15.2909 40.3915 15.031 39.7846 15.031H37.2836C36.9543 15.031 36.7268 15.0859 36.6001 15.1892C36.483 15.311 36.4241 15.5523 36.4241 15.9099V16.7484ZM40.6925 11.5535C40.7095 11.0483 40.4149 10.807 39.808 10.8231H33.1863V7.44568H40.6417C42.8134 7.48119 43.9158 8.53034 43.9529 10.602V17.6676C43.9344 18.561 43.6608 19.2978 43.1298 19.8837C42.5745 20.4906 41.8587 20.7957 40.9814 20.7957H36.475C34.2814 20.7771 33.1693 19.7756 33.1355 17.7846V15.0584C33.1524 12.9779 34.2153 11.9207 36.3192 11.8844H40.6925V11.5535Z" fill="#008AC9"/>
<path d="M53.1875 22.4154C53.4482 22.3992 53.6742 22.3056 53.8574 22.1377C54.0333 21.9812 54.1221 21.8012 54.1221 21.597V20.7956H49.9126C49.3638 20.7956 48.9248 20.7254 48.5971 20.5858C48.2509 20.4591 47.9063 20.2227 47.5593 19.8869C47.2308 19.531 46.9943 19.159 46.8507 18.77C46.7014 18.4141 46.6255 17.9613 46.6255 17.4174V7.44568H49.9126V16.3473C49.9126 17.0607 50.2039 17.4174 50.7939 17.4174H53.1149C53.3909 17.4174 53.6306 17.327 53.8315 17.1422C54.0252 16.9856 54.1221 16.8 54.1221 16.5821V7.44568H57.3825V22.1563C57.3639 23.245 57.0847 24.1166 56.5464 24.7776C56 25.4385 55.2527 25.7767 54.2996 25.7936H46.6255V22.4154H53.1875Z" fill="#008AC9"/>
<path d="M59.9645 17.4174H65.8227C66.3586 17.3988 66.637 17.1842 66.654 16.7726V16.4691C66.654 16.3812 66.6273 16.2835 66.5757 16.1786C66.445 15.9236 66.2844 15.7969 66.0931 15.7969H63.1886C62.3267 15.7799 61.5915 15.4829 60.9733 14.9099C60.3478 14.3805 60.0274 13.7293 60.0089 12.965V10.4462C60.0428 8.48111 61.1105 7.48119 63.2136 7.44568H70.008V10.8231H64.2514C63.576 10.8231 63.2354 11.0305 63.2354 11.4437V11.7706C63.2354 12.1991 63.5832 12.4138 64.2765 12.4138H67.1721C67.9436 12.4315 68.6014 12.7269 69.1493 13.3031C69.703 13.8834 69.9903 14.5734 70.008 15.3748V17.8387C69.9903 18.5311 69.6699 19.2219 69.0541 19.9111C68.7539 20.2493 68.4464 20.4817 68.1389 20.6133C67.821 20.7343 67.3892 20.7957 66.838 20.7957H59.9645V17.4174Z" fill="#008AC9"/>
<path d="M75.6326 16.7484C75.6326 16.9413 75.7214 17.0938 75.8989 17.2084C76.0523 17.3456 76.2484 17.4174 76.4921 17.4174H79.0221C79.5927 17.4174 79.8873 17.1963 79.9042 16.7484V15.8058C79.9042 15.2909 79.5992 15.031 78.9947 15.031H76.4921C76.1636 15.031 75.9369 15.0859 75.811 15.1892C75.6939 15.311 75.6326 15.5523 75.6326 15.9099V16.7484ZM79.9042 11.5535C79.9188 11.0483 79.6242 10.807 79.0165 10.8231H72.3964V7.44568H79.8542C82.0235 7.48119 83.1267 8.53034 83.1606 10.602V17.6676C83.1429 18.561 82.8669 19.2978 82.3391 19.8837C81.7879 20.4906 81.0712 20.7957 80.1932 20.7957H75.6826C73.4907 20.7771 72.3778 19.7756 72.3472 17.7846V15.0584C72.3617 12.9779 73.4237 11.9207 75.5293 11.8844H79.9042V11.5535Z" fill="#008AC9"/>
<path d="M85.8336 5.53059C85.8538 4.61864 86.1895 3.88666 86.8481 3.33787C87.4872 2.78021 88.3266 2.49371 89.3644 2.47757H91.4522V5.74041H90.1876C89.4927 5.75655 89.1384 6.08905 89.1231 6.73145V7.44648H91.4522V10.8272H89.1231V20.7973H85.8336V5.53059Z" fill="#008AC9"/>
<path d="M100.803 11.4905V11.4123C100.803 11.2387 100.733 11.0911 100.591 10.9813C100.438 10.8748 100.251 10.8231 100.026 10.8231H97.7369C97.4431 10.8231 97.2066 10.9054 97.0234 11.0741C96.7959 11.2299 96.6804 11.4349 96.6804 11.6875V13.0433L100.803 11.4905ZM96.7329 16.265V16.4756C96.7329 16.7459 96.8031 16.9606 96.946 17.1164C97.0493 17.3157 97.1881 17.4174 97.3729 17.4174H104.127V20.7957H96.946C96.2906 20.7957 95.7798 20.7343 95.4191 20.6116C95.0244 20.4817 94.6701 20.2695 94.361 19.9741C93.9995 19.6166 93.7533 19.2526 93.6299 18.8781C93.4943 18.4875 93.4273 17.9694 93.4273 17.3238L93.399 10.5633C93.4354 8.52065 94.5023 7.48119 96.5989 7.44568H101.031C103.079 7.48119 104.116 8.55697 104.149 10.6787V13.3491L96.7329 16.265Z" fill="#008AC9"/>
<path d="M111.108 20.7954C110.61 20.7954 110.155 20.7494 109.743 20.6654C109.311 20.5952 108.881 20.3951 108.441 20.0569C107.99 19.6639 107.678 19.2233 107.507 18.7366C107.326 18.258 107.239 17.7157 107.239 17.1056V10.8018C107.22 10.2878 107.272 9.83663 107.392 9.44522C107.503 9.05461 107.735 8.67208 108.086 8.29761C108.486 7.90459 108.895 7.64311 109.326 7.51479C109.741 7.41068 110.208 7.35822 110.732 7.35822H115.771V8.14831H110.849C109.979 8.14831 109.297 8.32667 108.797 8.68418C108.286 9.07398 108.026 9.74624 108.026 10.6937V17.0015C108.026 17.4454 108.093 17.8771 108.228 18.2935C108.366 18.7027 108.596 19.0618 108.926 19.3758C109.285 19.6478 109.641 19.8172 109.989 19.8866C110.352 19.9665 110.741 20.0045 111.153 20.0045H115.85V20.7954H111.108Z" fill="#008AC9"/>
<path d="M128.731 12.6169H122.125C121.334 12.6346 120.714 12.8792 120.268 13.3505C119.806 13.829 119.578 14.4851 119.578 15.3188V17.3308C119.578 17.7206 119.618 18.0773 119.702 18.3985C119.785 18.7366 119.993 19.0384 120.32 19.2975C120.891 19.7704 121.523 20.0045 122.213 20.0045H126.216C127.889 19.9867 128.731 19.1054 128.731 17.3558V12.6169ZM129.516 17.1589C129.516 17.6665 129.478 18.112 129.412 18.5042C129.306 18.9303 129.087 19.3411 128.755 19.7317C128.065 20.4588 127.21 20.8131 126.189 20.7954H122.261C121.24 20.7954 120.413 20.4903 119.772 19.8834C119.118 19.2838 118.786 18.4501 118.786 17.3808V15.3487C118.819 13.0559 119.961 11.8817 122.211 11.8284H128.755V10.939C128.755 10.2063 128.543 9.56466 128.121 9.01265C127.853 8.65432 127.536 8.41463 127.176 8.29116C126.812 8.19593 126.404 8.14831 125.948 8.14831H118.809V7.35822H125.577C126.196 7.35822 126.755 7.4018 127.262 7.48735C127.523 7.539 127.759 7.64069 127.978 7.78757C128.21 7.92718 128.426 8.13136 128.626 8.3993C129.233 9.18212 129.529 10.0852 129.516 11.1021V17.1589Z" fill="#008AC9"/>
<path d="M136.906 8.14831C135.074 8.18221 134.171 9.18212 134.205 11.1497V20.7954H133.418V11.1529C133.381 8.62204 134.586 7.35822 137.033 7.35822H137.908V8.14831H136.906Z" fill="#008AC9"/>
<path d="M150.214 8.15264H143.987C143.538 8.15264 143.136 8.20267 142.774 8.2979C142.395 8.38345 142.028 8.61346 141.685 8.98792C141.357 9.3293 141.15 9.66744 141.064 10.0056C140.948 10.347 140.896 10.7561 140.914 11.2331V17.3827C140.914 18.4052 141.211 19.1009 141.811 19.4745C142.107 19.648 142.433 19.778 142.797 19.8651C143.16 19.962 143.566 20.0096 144.012 20.0096H146.735C147.752 20.0096 148.584 19.7756 149.223 19.3034C149.865 18.8604 150.192 18.0961 150.214 17.0066V8.15264ZM151 17.0607C150.931 19.6061 149.584 20.8538 146.96 20.8013H144.041C143.424 20.8013 142.873 20.7472 142.386 20.6447C141.884 20.5148 141.404 20.2089 140.941 19.732C140.593 19.3034 140.37 18.8701 140.28 18.4262C140.16 17.9831 140.107 17.49 140.126 16.9517V11.2129C140.16 8.62798 141.462 7.34318 144.034 7.36255H150.214V3.00537H151V17.0607Z" fill="#008AC9"/>
<path d="M1.41172 6.93802C1.66997 6.82423 1.92822 6.73545 2.18647 6.67977C2.66101 4.41361 4.6681 2.714 7.07387 2.714C9.48126 2.714 11.4892 4.41604 11.9629 6.68138C12.7013 6.82181 13.3123 7.12041 13.7884 7.56509C13.8078 7.13009 13.79 6.71124 13.7384 6.3166C13.4341 2.89316 10.5635 0.206543 7.06338 0.206543C3.45997 0.206543 0.526397 3.06264 0.373867 6.63296C0.352885 6.94125 0.346429 7.26245 0.357728 7.59817C0.660365 7.34315 1.00578 7.11395 1.41172 6.93802Z" fill="#E3001B"/>
<path d="M10.9854 7.44568H2.95536C2.56879 7.44568 2.1685 7.53526 1.75611 7.72007C1.35824 7.89359 1.0322 8.10341 0.770719 8.3544C0.272778 8.95322 0.0177545 9.82886 0 10.9813V17.2584C0.0177545 18.4133 0.272778 19.2881 0.770719 19.8837C1.0322 20.1387 1.35824 20.3486 1.75611 20.5237C2.1685 20.7045 2.56879 20.7957 2.95536 20.7957H10.9854C13.0594 20.7771 14.1142 19.6392 14.1473 17.39V10.8498C14.1142 8.59732 13.0594 7.46344 10.9854 7.44568Z" fill="#E3001B"/>
</svg>
