<svg width="75" height="24" viewBox="0 0 75 24" fill="none" xmlns="http://www.w3.org/2000/svg">
<g clip-path="url(#clip0_2016_31094)">
<path d="M48.6001 0C43.3366 0 38.6107 2.73882 38.6107 7.76471C38.6107 13.5529 46.9588 13.9482 46.9588 16.8282C46.9588 18.0424 45.5438 19.1435 43.1668 19.1435C39.771 19.1435 37.2241 17.6188 37.2241 17.6188L36.1488 22.7012C36.1488 22.7012 39.0635 24 42.9687 24C48.7416 24 53.2693 21.1482 53.2693 16.0094C53.2693 9.91059 44.893 9.5153 44.893 6.83294C44.893 5.87294 46.0532 4.82824 48.4303 4.82824C51.1186 4.82824 53.3259 5.92941 53.3259 5.92941L54.4012 1.01647C54.373 1.01647 51.9676 0 48.6001 0ZM0.379529 0.367059L0.238037 1.10118C0.238037 1.10118 2.44532 1.49647 4.4545 2.31529C7.02966 3.24706 7.19945 3.78353 7.65223 5.44941L12.3781 23.6047H18.7169L28.4233 0.367059H22.1127L15.8588 16.1788L13.3119 2.76706C13.0855 1.24235 11.897 0.367059 10.4255 0.367059H0.379529ZM30.9701 0.367059L26.0179 23.6047H32.0455L36.9694 0.367059H30.9701ZM64.5321 0.367059C63.0889 0.367059 62.3248 1.12941 61.7588 2.48471L52.9297 23.6047H59.2403L60.4571 20.0753H68.1543L68.8901 23.6047H74.4648L69.6258 0.367059H64.5321ZM65.3528 6.66353L67.2204 15.3882H62.2116L65.3528 6.66353Z" fill="white"/>
</g>
<defs>
<clipPath id="clip0_2016_31094">
<rect width="74.2268" height="24" fill="white" transform="translate(0.238037)"/>
</clipPath>
</defs>
</svg>
