<svg width="36" height="36" viewBox="0 0 36 36" fill="none" xmlns="http://www.w3.org/2000/svg">
<path d="M17.4648 8.83726C17.8768 8.4253 17.8768 7.75741 17.4648 7.34545L15.9737 5.85433C15.5616 5.44293 14.8935 5.44293 14.4814 5.85433L12.2437 8.09209L15.2269 11.0753L17.4648 8.83726Z" fill="#5B9FFF"/>
<path d="M5.52976 19.2811C5.94173 19.6931 6.60961 19.6931 7.02158 19.2811L9.25955 17.0431L10.7519 18.5354L15.2281 14.0598C12.1768 11.01 13.666 12.4978 10.7519 9.58362L9.25962 11.0757L8.51382 10.3299C8.10192 9.91802 7.43397 9.91795 7.022 10.3299C6.6101 10.7419 6.6101 11.4098 7.022 11.8217L7.76767 12.5674L4.0378 16.2968C3.6264 16.7089 3.6264 17.377 4.0378 17.7891L5.52976 19.2811Z" fill="#5B9FFF"/>
<path d="M33.4531 1.80069C33.8652 1.38858 33.8652 0.72119 33.4531 0.309081C33.041 -0.103027 32.3736 -0.103027 31.9615 0.309081L25.6701 6.60042L24.924 5.85426C24.5119 5.44215 23.8445 5.44215 23.4324 5.85426C23.0203 6.26637 23.0203 6.93446 23.4324 7.34657L24.1778 8.09202C24.0932 8.17656 11.4888 20.7613 11.4784 20.7717C11.2801 20.9701 11.169 21.2387 11.169 21.5186V24.5025C11.169 25.0848 10.6964 25.5574 10.1141 25.5574C9.5318 25.5574 9.05921 25.0848 9.05921 24.5025V23.4575C8.9829 23.4901 8.74352 23.5277 8.51348 23.7564L2.54635 29.7235C2.13494 30.1356 2.13494 30.8037 2.54635 31.2158L7.02187 35.6913C7.53103 36.1998 8.38971 36.0605 8.7118 35.4171L11.4039 30.0329H14.6093C16.3492 30.0329 17.7712 28.6159 17.7796 26.8683V25.5229C19.0194 26.473 20.8064 26.3823 21.9408 25.248C23.1743 24.0145 23.1743 22.0067 21.9408 20.7724L21.196 20.0284C21.196 20.0284 29.3935 11.8291 29.3995 11.8221C29.8116 11.41 29.8116 10.7419 29.3995 10.3298C28.9874 9.91768 28.32 9.91768 27.9079 10.3298L26.1308 12.1069L25.3846 9.86915C27.119 8.13478 30.1659 5.08785 33.4531 1.80069ZM20.4486 23.7564C20.0373 24.1678 19.368 24.1678 18.9568 23.7564L18.2133 23.013L19.7047 21.5207L20.4486 22.2645C20.8599 22.6759 20.8599 23.3452 20.4486 23.7564Z" fill="#5B9FFF"/>
</svg>
