<?xml version="1.0" encoding="UTF-8"?>
<svg id="uuid-0cd0b495-3a0c-445e-8f27-6cd2df54fa27" data-name="Layer 1" xmlns="http://www.w3.org/2000/svg" width="2028.0978" height="364.8" viewBox="0 0 2028.0978 364.8">
  <defs>
    <style>
      .uuid-6fabda33-9b39-4717-9625-a5e8d4ad0aa0 {
        fill: #fff;
      }

      .uuid-5ed2d8f2-8d3a-45a0-8127-090b9d586c39 {
        fill: #b055ff;
      }
    </style>
  </defs>
  <g>
    <g>
      <polygon class="uuid-6fabda33-9b39-4717-9625-a5e8d4ad0aa0" points="1548.4779 102.4 1514.4679 262.4 1566.808 262.4 1600.8178 102.4 1548.4779 102.4"/>
      <polygon class="uuid-6fabda33-9b39-4717-9625-a5e8d4ad0aa0" points="1762.1176 102.4 1739.7377 207.6998 1692.8578 102.4 1620.4477 102.4 1586.4376 262.4 1638.7777 262.4 1661.1676 157.09 1708.0477 262.4 1780.4477 262.4 1814.4577 102.4 1762.1176 102.4"/>
      <polygon class="uuid-6fabda33-9b39-4717-9625-a5e8d4ad0aa0" points="1144.9479 160.0001 1173.1478 150.4 1173.1579 150.4 1175.1979 140.7999 1316.8678 140.7999 1325.028 102.4 1131.0177 102.4 1109.2477 204.7999 1277.0875 204.7999 1248.8776 214.4 1246.8375 224.0001 1105.1679 224.0001 1097.008 262.4 1291.0177 262.4 1312.778 160.0001 1144.9479 160.0001"/>
      <polygon class="uuid-6fabda33-9b39-4717-9625-a5e8d4ad0aa0" points="1876.2277 150.4 1878.2677 140.7999 2019.9376 140.7999 2028.0978 102.4 1834.0875 102.4 1812.3175 204.7999 1980.1574 204.7999 1951.9474 214.4 1949.9074 224.0001 1808.2377 224.0001 1800.0778 262.4 1994.0875 262.4 2015.8478 160.0001 1848.0177 160.0001 1876.2177 150.4 1876.2277 150.4"/>
      <polygon class="uuid-6fabda33-9b39-4717-9625-a5e8d4ad0aa0" points="1538.6681 102.4 1470.8278 102.4 1420.758 160.0001 1358.588 160.0001 1386.788 150.4 1396.9982 102.4 1344.6579 102.4 1310.6481 262.4 1362.9879 262.4 1375.2279 204.7999 1450.9879 204.7999 1427.2482 214.4 1448.6178 262.4 1504.6579 262.4 1469.068 182.4698 1538.6681 102.4"/>
    </g>
    <polygon class="uuid-5ed2d8f2-8d3a-45a0-8127-090b9d586c39" points="1111.3786 102.3956 1077.3686 262.3956 998.8586 262.3956 1027.0686 252.7955 1035.2286 214.3956 1063.4386 204.7955 895.5986 204.7955 915.3286 111.9957 897.1186 105.3156 889.5786 140.7955 747.9086 140.7955 730.2186 223.9957 819.5486 223.9957 821.5886 214.3956 849.7986 204.7955 753.9286 204.7955 763.4486 159.9957 885.4986 159.9957 863.7286 262.3956 617.1186 262.3956 673.7987 243.1959 699.6485 121.5958 651.1285 102.3956 969.7086 102.3956 959.5086 150.3956 931.2986 159.9957 1046.7986 159.9957 1059.0386 102.3956 1111.3786 102.3956"/>
  </g>
  <path class="uuid-6fabda33-9b39-4717-9625-a5e8d4ad0aa0" d="M471.9542,196.975l11.3496,53.4168c12.8646-6.7211,44.7455-25.612,65.2685-64.6743,14.4213-27.4617,16.9993-53.0232,17.3508-67.2856-5.1139-.6529-14.413-2.5277-24.189-8.7467-9.5586-6.0764-15.1329-13.5006-17.9034-17.8028,5.3066,.226,12.58-.0333,20.8996-2.0757,7.0141-1.7157,12.7222-4.1931,16.9658-6.4197-32.651-10.613-65.3021-21.2178-97.9531-31.8308l-29.0687-39.9998C405.179,5.0781,366.5687-.58,321.2958,.0477c-44.938,.6277-83.1298,7.2652-112.3074,14.4884-11.4332,11.5338-23.1343,23.8626-34.9863,37.0201H39.6316l143.0752,57.811c-9.6922-.0922-19.8953,.0838-30.5583,.6277-10.0942,.5104-19.7447,1.2974-28.9181,2.285-19.5941,25.2855-36.7775,49.801-51.8182,72.9856-11.0315,.3182-22.7242,1.0043-35.0112,2.1679-12.8898,1.222-25.0429,2.8457-36.4009,4.7205,43.6492,10.6048,99.1585,28.5163,159.154,59.8951,50.2362,26.2731,90.5456,55.1411,121.3553,80.5939l-151.2945,32.1571h215.1737l44.1764-60.8073c-2.126-6.1771-4.9551-13.0655-8.7716-20.3138-6.9303-13.1575-14.8901-23.3187-21.7536-30.7427,11.6846,6.3275,35.3882,21.2008,53.6093,49.9599,15.8528,25.0261,20.2051,48.9556,21.6195,61.9038,17.058-10.1945,42.2764-28.1146,65.3607-57.3004,19.234-24.323,30.2739-47.968,36.6519-65.0425-1.9251,3.9003-16.6269,26.2683-42.5108,34.9276-6.3083,2.1104-26.5745,5.7167-42.1091-8.0436-11.0482-9.776-16.4468-25.7123-12.6722-41.0207,3.9675-16.0871,17.3341-28.4328,33.9652-31.3455Zm-50.931-85.691c-17.8277,6.6289-33.5548,7.4156-43.2473,7.1479l12.2369-7.6502c-4.0846-3.6575-9.9519-9.8095-14.5889-18.8993-3.4902-6.8214-5.1725-13.1072-6.0263-17.7775l-39.0455-22.5487c42.7366,13.8858,81.3722,26.4406,124.109,40.3262-6.989,5.8256-18.121,13.7016-33.438,19.4016Z"/>
</svg>